<svg width="44" height="44" viewBox="0 0 44 44" fill="none" xmlns="http://www.w3.org/2000/svg">
<path d="M34.7064 10.3431C32.3694 9.27079 29.8633 8.48075 27.243 8.02827C27.1953 8.01953 27.1476 8.04136 27.123 8.08501C26.8007 8.65825 26.4437 9.4061 26.1937 9.9939C23.3755 9.57197 20.5716 9.57197 17.8112 9.9939C17.5611 9.39303 17.1911 8.65825 16.8674 8.08501C16.8428 8.04281 16.7951 8.02099 16.7474 8.02827C14.1286 8.47931 11.6225 9.26934 9.28404 10.3431C9.2638 10.3518 9.24645 10.3664 9.23493 10.3853C4.48141 17.487 3.17922 24.4141 3.81803 31.2553C3.82092 31.2888 3.83971 31.3208 3.86572 31.3411C7.00196 33.6443 10.0399 35.0426 13.0215 35.9693C13.0692 35.9839 13.1198 35.9664 13.1502 35.9271C13.8554 34.964 14.4842 33.9484 15.0232 32.8805C15.055 32.8179 15.0246 32.7437 14.9596 32.719C13.9624 32.3407 13.0128 31.8795 12.0994 31.3557C12.0272 31.3135 12.0214 31.2102 12.0879 31.1607C12.2801 31.0167 12.4723 30.8668 12.6559 30.7155C12.6891 30.6878 12.7354 30.682 12.7744 30.6995C18.7751 33.4392 25.2716 33.4392 31.2016 30.6995C31.2406 30.6806 31.2869 30.6864 31.3215 30.714C31.5051 30.8653 31.6973 31.0167 31.891 31.1607C31.9575 31.2102 31.9531 31.3135 31.8809 31.3557C30.9675 31.8896 30.0179 32.3407 29.0192 32.7175C28.9542 32.7423 28.9253 32.8179 28.9571 32.8805C29.5077 33.9469 30.1364 34.9625 30.8287 35.9257C30.8576 35.9664 30.9096 35.9839 30.9573 35.9693C33.9534 35.0426 36.9913 33.6443 40.1276 31.3411C40.155 31.3208 40.1724 31.2902 40.1753 31.2567C40.9398 23.3475 38.8947 16.4772 34.754 10.3867C34.7439 10.3664 34.7266 10.3518 34.7064 10.3431ZM15.9193 27.0897C14.1127 27.0897 12.6241 25.4311 12.6241 23.3941C12.6241 21.3572 14.0838 19.6985 15.9193 19.6985C17.7692 19.6985 19.2434 21.3717 19.2145 23.3941C19.2145 25.4311 17.7548 27.0897 15.9193 27.0897ZM28.1029 27.0897C26.2963 27.0897 24.8077 25.4311 24.8077 23.3941C24.8077 21.3572 26.2674 19.6985 28.1029 19.6985C29.9529 19.6985 31.427 21.3717 31.3982 23.3941C31.3982 25.4311 29.9529 27.0897 28.1029 27.0897Z" fill="#011627"/>
</svg>
