<svg width="44" height="44" viewBox="0 0 44 44" fill="none" xmlns="http://www.w3.org/2000/svg">
<path fill-rule="evenodd" clip-rule="evenodd" d="M22.015 3.97168C11.8688 3.97168 3.6665 12.2344 3.6665 22.4565C3.6665 30.6276 8.92197 37.5443 16.2127 39.9923C17.1242 40.1763 17.4581 39.5945 17.4581 39.1052C17.4581 38.6766 17.4281 37.2077 17.4281 35.6772C12.324 36.7792 11.2611 33.4737 11.2611 33.4737C10.4408 31.3314 9.22544 30.7808 9.22544 30.7808C7.55487 29.6485 9.34713 29.6485 9.34713 29.6485C11.2002 29.7709 12.1726 31.5459 12.1726 31.5459C13.8128 34.3612 16.4557 33.5657 17.519 33.076C17.6707 31.8824 18.1571 31.0561 18.6735 30.5972C14.6026 30.1686 10.3195 28.5773 10.3195 21.477C10.3195 19.4571 11.0481 17.8046 12.2026 16.5194C12.0205 16.0604 11.3824 14.1626 12.3852 11.6226C12.3852 11.6226 13.9344 11.1328 17.4277 13.52C18.9233 13.1154 20.4657 12.9095 22.015 12.9078C23.5643 12.9078 25.1436 13.1223 26.6019 13.52C30.0956 11.1328 31.6448 11.6226 31.6448 11.6226C32.6476 14.1626 32.0091 16.0604 31.827 16.5194C33.0119 17.8046 33.7105 19.4571 33.7105 21.477C33.7105 28.5773 29.4274 30.1378 25.3261 30.5972C25.9946 31.1786 26.5715 32.2801 26.5715 34.0247C26.5715 36.5035 26.5415 38.493 26.5415 39.1048C26.5415 39.5945 26.8757 40.1763 27.7869 39.9926C35.0776 37.5439 40.3331 30.6276 40.3331 22.4565C40.3631 12.2344 32.1308 3.97168 22.015 3.97168Z" fill="#011627"/>
</svg>
