<svg width="20" height="220" viewBox="0 0 20 220" fill="none" xmlns="http://www.w3.org/2000/svg">
<path d="M14 217.588V219.189H-0.00390625L-0.00390625 217.49L5.17188 215.146L-0.00390625 212.812L-0.00390625 211.123H14V212.725H3.49219L6.99805 214.307V215.996L3.46289 217.588H14ZM12.9258 205.469C12.9258 204.577 12.5872 203.867 11.9102 203.34C11.6693 203.151 11.3438 203.05 10.9336 203.037C10.5234 203.05 10.1947 203.151 9.94727 203.34C9.27669 203.874 8.94141 204.583 8.94141 205.469C8.94141 206.354 9.27669 207.064 9.94727 207.598C10.1947 207.786 10.5234 207.887 10.9336 207.9C11.3438 207.887 11.6693 207.786 11.9102 207.598C12.5872 207.07 12.9258 206.361 12.9258 205.469ZM14 201.436V203.037H13.4629C13.4499 203.018 13.4401 203.008 13.4336 203.008C13.4271 203.008 13.4238 203.011 13.4238 203.018C13.4238 203.05 13.4857 203.197 13.6094 203.457C13.8698 204.03 14 204.701 14 205.469C14 206.237 13.86 206.934 13.5801 207.559C13.2936 208.177 12.9323 208.656 12.4961 208.994C12.0534 209.333 11.5879 209.502 11.0996 209.502H10.7676C10.2793 209.502 9.81706 209.333 9.38086 208.994C8.93815 208.656 8.57682 208.177 8.29688 207.559C8.01042 206.934 7.86719 206.237 7.86719 205.469C7.86719 204.701 7.9974 204.03 8.25781 203.457C8.38151 203.197 8.44336 203.05 8.44336 203.018C8.44336 203.011 8.4401 203.008 8.43359 203.008C8.42708 203.008 8.41732 203.018 8.4043 203.037C7.61654 203.037 6.97201 203.288 6.4707 203.789C5.9694 204.29 5.71875 204.85 5.71875 205.469V208.428H4.64453V205.469C4.64453 204.681 4.83008 203.981 5.20117 203.369C5.56576 202.751 6.02799 202.275 6.58789 201.943C7.14779 201.605 7.75651 201.436 8.41406 201.436H14ZM8.41406 193.35C7.61979 193.35 6.97201 193.6 6.4707 194.102C5.9694 194.603 5.71875 195.163 5.71875 195.781C5.71875 196.4 5.9694 196.96 6.4707 197.461C6.97201 197.962 7.61979 198.213 8.41406 198.213H10.2305C11.0247 198.213 11.6725 197.962 12.1738 197.461C12.6751 196.96 12.9258 196.4 12.9258 195.781C12.9258 195.163 12.6751 194.603 12.1738 194.102C11.6725 193.6 11.0247 193.35 10.2305 193.35H8.41406ZM-0.00390625 191.748H14V193.35H13.3359C13.3034 193.317 13.2806 193.301 13.2676 193.301C13.2611 193.301 13.2578 193.304 13.2578 193.311C13.2578 193.343 13.3164 193.457 13.4336 193.652C13.8112 194.284 14 194.993 14 195.781C14 196.569 13.8177 197.272 13.4531 197.891C13.082 198.503 12.6165 198.978 12.0566 199.316C11.4967 199.648 10.888 199.814 10.2305 199.814H8.41406C7.75651 199.814 7.14779 199.648 6.58789 199.316C6.02799 198.978 5.56576 198.503 5.20117 197.891C4.83008 197.272 4.64453 196.569 4.64453 195.781C4.64453 194.993 4.83333 194.284 5.21094 193.652C5.32813 193.457 5.38672 193.343 5.38672 193.311C5.38672 193.304 5.38346 193.301 5.37695 193.301C5.36393 193.301 5.34115 193.317 5.30859 193.35H-0.00390625L-0.00390625 191.748ZM12.9258 186.094V183.135H14V186.094C14 186.882 13.8177 187.585 13.4531 188.203C13.082 188.815 12.6165 189.29 12.0566 189.629C11.4967 189.961 10.888 190.127 10.2305 190.127H8.41406C7.75651 190.127 7.14779 189.961 6.58789 189.629C6.02799 189.29 5.56576 188.815 5.20117 188.203C4.83008 187.585 4.64453 186.882 4.64453 186.094C4.64453 185.306 4.83008 184.606 5.20117 183.994C5.56576 183.376 6.02799 182.9 6.58789 182.568C7.14779 182.23 7.75651 182.061 8.41406 182.061H9.85938V188.525H10.2305C11.0247 188.525 11.6725 188.275 12.1738 187.773C12.6751 187.272 12.9258 186.712 12.9258 186.094ZM8.41406 183.662C7.61979 183.662 6.97201 183.913 6.4707 184.414C5.9694 184.915 5.71875 185.475 5.71875 186.094C5.71875 186.712 5.9694 187.272 6.4707 187.773C6.97201 188.275 7.61979 188.525 8.41406 188.525H8.78516V183.662H8.41406ZM6.48047 171.025L10.8457 169.014L4.64453 168.154V166.455L14 167.529V169.248L10.0645 171.025L14 172.803V174.521L4.64453 175.596V173.896L10.8457 173.037L6.48047 171.025ZM14 163.232V164.834H4.64453V163.232H14ZM2.49609 163.232V164.834H1.42188L1.42188 163.232H2.49609ZM4.64453 159.463H-0.00390625L-0.00390625 157.861H4.64453L4.64453 154.619H5.71875L5.71875 157.861H11.8516C12.2031 157.861 12.4701 157.77 12.6523 157.588C12.8346 157.406 12.9258 157.227 12.9258 157.051V154.619H14V157.051C14 157.767 13.7786 158.35 13.3359 158.799C12.8867 159.242 12.3919 159.463 11.8516 159.463H5.71875V161.611H4.64453V159.463ZM-0.00390625 152.998L-0.00390625 151.396H5.30859C5.33464 151.423 5.35417 151.436 5.36719 151.436C5.3737 151.436 5.37695 151.432 5.37695 151.426C5.37695 151.387 5.30208 151.243 5.15234 150.996C4.8138 150.43 4.64453 149.753 4.64453 148.965C4.64453 148.177 4.83008 147.477 5.20117 146.865C5.56576 146.247 6.02799 145.771 6.58789 145.439C7.14779 145.101 7.75651 144.932 8.41406 144.932H14V146.533H8.41406C7.61979 146.533 6.97201 146.784 6.4707 147.285C5.9694 147.786 5.71875 148.346 5.71875 148.965C5.71875 149.583 5.9694 150.143 6.4707 150.645C6.97201 151.146 7.61979 151.396 8.41406 151.396H14V152.998H-0.00390625ZM8.41406 117.49H10.2305C11.0247 117.49 11.6725 117.24 12.1738 116.738C12.6751 116.237 12.9258 115.677 12.9258 115.059C12.9258 114.44 12.6751 113.88 12.1738 113.379C11.6725 112.878 11.0247 112.627 10.2305 112.627H8.41406C7.61979 112.627 6.97201 112.878 6.4707 113.379C5.9694 113.88 5.71875 114.44 5.71875 115.059C5.71875 115.677 5.9694 116.237 6.4707 116.738C6.97201 117.24 7.61979 117.49 8.41406 117.49ZM-0.00390625 119.092L-0.00390625 117.49H5.30859C5.34115 117.523 5.36393 117.539 5.37695 117.539C5.38346 117.539 5.38672 117.536 5.38672 117.529C5.38672 117.497 5.32813 117.383 5.21094 117.188C4.83333 116.556 4.64453 115.846 4.64453 115.059C4.64453 114.271 4.83008 113.571 5.20117 112.959C5.56576 112.34 6.02799 111.865 6.58789 111.533C7.14779 111.195 7.75651 111.025 8.41406 111.025H10.2305C10.888 111.025 11.4967 111.195 12.0566 111.533C12.6165 111.865 13.082 112.34 13.4531 112.959C13.8177 113.571 14 114.271 14 115.059C14 115.846 13.8112 116.556 13.4336 117.188C13.3164 117.383 13.2578 117.497 13.2578 117.529C13.2578 117.536 13.2611 117.539 13.2676 117.539C13.2806 117.539 13.3034 117.523 13.3359 117.49H14L14 119.092H-0.00390625ZM13.9805 106.094L4.64453 109.385V107.812L11.998 105.283L4.64453 102.93V101.348C11.3047 103.503 14.8398 104.704 15.25 104.951C15.8294 105.296 16.3014 105.778 16.666 106.396C17.0371 107.008 17.2227 107.708 17.2227 108.496V108.799H16.1484V108.496C16.1484 107.878 15.8848 107.305 15.3574 106.777C15.0254 106.445 14.5664 106.217 13.9805 106.094ZM4.64453 92.7246H-0.00390625L-0.00390625 91.123H4.64453V87.8809H5.71875V91.123H11.8516C12.2031 91.123 12.4701 91.0319 12.6523 90.8496C12.8346 90.6673 12.9258 90.4883 12.9258 90.3125L12.9258 87.8809H14L14 90.3125C14 91.0286 13.7786 91.6113 13.3359 92.0605C12.8867 92.5033 12.3919 92.7246 11.8516 92.7246H5.71875V94.873H4.64453V92.7246ZM12.9258 82.2266V79.2676H14V82.2266C14 83.0143 13.8177 83.7174 13.4531 84.3359C13.082 84.9479 12.6165 85.4232 12.0566 85.7617C11.4967 86.0938 10.888 86.2598 10.2305 86.2598H8.41406C7.75651 86.2598 7.14779 86.0938 6.58789 85.7617C6.02799 85.4232 5.56576 84.9479 5.20117 84.3359C4.83008 83.7174 4.64453 83.0143 4.64453 82.2266C4.64453 81.4388 4.83008 80.7389 5.20117 80.127C5.56576 79.5085 6.02799 79.0332 6.58789 78.7012C7.14779 78.3626 7.75651 78.1934 8.41406 78.1934H9.85938V84.6582H10.2305C11.0247 84.6582 11.6725 84.4076 12.1738 83.9062C12.6751 83.4049 12.9258 82.8451 12.9258 82.2266ZM8.41406 79.7949C7.61979 79.7949 6.97201 80.0456 6.4707 80.5469C5.9694 81.0482 5.71875 81.6081 5.71875 82.2266C5.71875 82.8451 5.9694 83.4049 6.4707 83.9062C6.97201 84.4076 7.61979 84.6582 8.41406 84.6582H8.78516V79.7949H8.41406ZM12.9258 72.5391C12.9258 71.6471 12.5872 70.9375 11.9102 70.4102C11.6693 70.2214 11.3438 70.1204 10.9336 70.1074C10.5234 70.1204 10.1947 70.2214 9.94727 70.4102C9.27669 70.944 8.94141 71.6536 8.94141 72.5391C8.94141 73.4245 9.27669 74.1341 9.94727 74.668C10.1947 74.8568 10.5234 74.9577 10.9336 74.9707C11.3438 74.9577 11.6693 74.8568 11.9102 74.668C12.5872 74.1406 12.9258 73.431 12.9258 72.5391ZM14 68.5059V70.1074H13.4629C13.4499 70.0879 13.4401 70.0781 13.4336 70.0781C13.4271 70.0781 13.4238 70.0814 13.4238 70.0879C13.4238 70.1204 13.4857 70.2669 13.6094 70.5273C13.8698 71.1003 14 71.7708 14 72.5391C14 73.3073 13.86 74.0039 13.5801 74.6289C13.2936 75.2474 12.9323 75.7259 12.4961 76.0645C12.0534 76.403 11.5879 76.5723 11.0996 76.5723H10.7676C10.2793 76.5723 9.81706 76.403 9.38086 76.0645C8.93815 75.7259 8.57682 75.2474 8.29688 74.6289C8.01042 74.0039 7.86719 73.3073 7.86719 72.5391C7.86719 71.7708 7.9974 71.1003 8.25781 70.5273C8.38151 70.2669 8.44336 70.1204 8.44336 70.0879C8.44336 70.0814 8.4401 70.0781 8.43359 70.0781C8.42708 70.0781 8.41732 70.0879 8.4043 70.1074C7.61654 70.1074 6.97201 70.3581 6.4707 70.8594C5.9694 71.3607 5.71875 71.9206 5.71875 72.5391V75.498H4.64453V72.5391C4.64453 71.7513 4.83008 71.0514 5.20117 70.4395C5.56576 69.821 6.02799 69.3457 6.58789 69.0137C7.14779 68.6751 7.75651 68.5059 8.41406 68.5059H14ZM5.31836 62.3047C4.86914 61.8294 4.64453 61.2044 4.64453 60.4297C4.64453 59.6354 4.89518 58.9909 5.39648 58.4961C5.89128 57.9948 6.44792 57.7441 7.06641 57.7441H14V59.3457H7.06641C6.64323 59.3457 6.31445 59.4661 6.08008 59.707C5.83919 59.9414 5.71875 60.1823 5.71875 60.4297C5.71875 60.6771 5.83919 60.9212 6.08008 61.1621C6.31445 61.3965 6.64323 61.5137 7.06641 61.5137H14V63.1152H7.06641C6.64323 63.1152 6.31445 63.2357 6.08008 63.4766C5.83919 63.7109 5.71875 63.9518 5.71875 64.1992C5.71875 64.4466 5.83919 64.6908 6.08008 64.9316C6.31445 65.166 6.64323 65.2832 7.06641 65.2832H14V66.8848H4.64453V65.2832H4.76172C4.68359 65.166 4.64453 64.8047 4.64453 64.1992C4.64453 63.4245 4.86914 62.7995 5.31836 62.3242L5.32813 62.3145L5.31836 62.3047ZM7.04688 51.2988L-0.00390625 48.1055L-0.00390625 46.3965H0.0546875L7.04688 43.2324H14V44.834H11.0313V49.6973H14V51.2988H7.04688ZM6.94922 49.6973H9.95703V44.834H6.94922L1.82227 47.2656L6.94922 49.6973ZM14 40.0098V41.6113H-0.00390625L-0.00390625 39.9121L7.08594 36.6992L10.5332 35.1465H-0.00390625L-0.00390625 33.5449H14V35.2441L6.91016 38.457L3.46289 40.0098H14ZM1.07031 28.6914L1.07031 31.9238H-0.00390625L-0.00390625 23.8574H1.07031L1.07031 27.0898H14V28.6914H1.07031ZM1.07031 20.6348H6.46094V18.2031C6.46094 17.5846 6.21029 17.0247 5.70898 16.5234C5.20768 16.0221 4.5599 15.7715 3.76563 15.7715C2.97135 15.7715 2.32357 16.0221 1.82227 16.5234C1.32096 17.0247 1.07031 17.5846 1.07031 18.2031L1.07031 20.6348ZM7.53516 20.6348H14V22.2363H-0.00390625L-0.00390625 18.2031C-0.00390625 17.4154 0.181641 16.7155 0.552734 16.1035C0.917318 15.485 1.37956 15.0098 1.93945 14.6777C2.49935 14.3392 3.10807 14.1699 3.76563 14.1699C4.42318 14.1699 5.0319 14.3392 5.5918 14.6777C6.15169 15.0098 6.63021 15.5078 7.02734 16.1719C7.21615 16.4844 7.34635 16.8197 7.41797 17.1777L14 14.1992V15.8691L7.53516 18.7988V20.6348ZM14 10.9473V12.5488H4.64453V10.9473H14ZM2.49609 10.9473V12.5488H1.42188L1.42188 10.9473H2.49609ZM7.00781 4.45312L14 1.28906L14 2.95898L8.85352 5.2832L14 7.60742V9.27734L7.01758 6.12305L6.91016 6.17188L-0.00390625 9.29688L-0.00390625 7.62695L5.17188 5.2832L-0.00390625 2.94922L-0.00390625 1.2793L6.99805 4.44336L7.00781 4.45312Z" fill="#011627"/>
<path d="M15.8332 133.667C17.0748 132.45 18.3332 130.992 18.3332 129.083C18.3332 127.868 17.8503 126.702 16.9907 125.842C16.1312 124.983 14.9654 124.5 13.7498 124.5C12.2832 124.5 11.2498 124.917 9.99984 126.167C8.74984 124.917 7.7165 124.5 6.24984 124.5C5.03426 124.5 3.86847 124.983 3.00893 125.842C2.14939 126.702 1.6665 127.868 1.6665 129.083C1.6665 131 2.9165 132.458 4.1665 133.667L9.99984 139.5L15.8332 133.667Z" fill="#FF2323"/>
</svg>
