<svg width="100" height="100" viewBox="0 0 100 100" fill="none" xmlns="http://www.w3.org/2000/svg">
    <path fill-rule="evenodd" clip-rule="evenodd"
        d="M36.3706 36.3706C39.9854 32.7559 44.888 30.7251 50.0001 30.7251C55.1121 30.7251 60.0148 32.7559 63.6296 36.3706C67.2443 39.9854 69.2751 44.8881 69.2751 50.0001C69.2751 55.1122 67.2443 60.0148 63.6296 63.6296C60.0148 67.2444 55.1121 69.2751 50.0001 69.2751C44.888 69.2751 39.9854 67.2444 36.3706 63.6296C32.7559 60.0148 30.7251 55.1122 30.7251 50.0001C30.7251 44.8881 32.7559 39.9854 36.3706 36.3706ZM45.2118 61.5602C46.7299 62.189 48.3569 62.5126 50.0001 62.5126C53.3186 62.5126 56.5012 61.1943 58.8478 58.8478C61.1943 56.5012 62.5126 53.3186 62.5126 50.0001C62.5126 46.6816 61.1943 43.499 58.8478 41.1524C56.5012 38.8059 53.3186 37.4876 50.0001 37.4876C48.3569 37.4876 46.7299 37.8113 45.2118 38.4401C43.6937 39.0689 42.3143 39.9905 41.1524 41.1524C39.9905 42.3143 39.0689 43.6937 38.4401 45.2118C37.8112 46.7299 37.4876 48.3569 37.4876 50.0001C37.4876 51.6433 37.8112 53.2704 38.4401 54.7884C39.0689 56.3065 39.9905 57.6859 41.1524 58.8478C42.3143 60.0097 43.6937 60.9313 45.2118 61.5602Z"
        fill="var(--AccentColor)" />
    <path
        d="M73.548 33.5968C74.4025 32.7423 74.8825 31.5834 74.8825 30.375C74.8825 29.1666 74.4025 28.0077 73.548 27.1533C72.6935 26.2988 71.5346 25.8188 70.3262 25.8188C69.1178 25.8188 67.9589 26.2988 67.1045 27.1533C66.25 28.0077 65.77 29.1666 65.77 30.375C65.77 31.5834 66.25 32.7423 67.1045 33.5968C67.9589 34.4512 69.1178 34.9313 70.3262 34.9313C71.5346 34.9313 72.6935 34.4512 73.548 33.5968Z"
        fill="#FF2323" />
    <path fill-rule="evenodd" clip-rule="evenodd"
        d="M34.54 12.725C38.54 12.5425 39.815 12.5 50 12.5C60.1875 12.5 61.46 12.545 65.4575 12.725C69.45 12.9075 72.18 13.545 74.565 14.4675C77.0663 15.4096 79.3322 16.8856 81.205 18.7925C83.1126 20.6658 84.5885 22.9327 85.53 25.435C86.4575 27.82 87.0925 30.5475 87.275 34.54C87.4575 38.54 87.5 39.815 87.5 50C87.5 60.185 87.4575 61.46 87.275 65.46C87.0925 69.4525 86.4575 72.18 85.5325 74.565C84.5904 77.0663 83.1144 79.3322 81.2075 81.205C79.3325 83.115 77.065 84.59 74.565 85.53C72.18 86.4575 69.4525 87.0925 65.46 87.275C61.46 87.4575 60.185 87.5 50 87.5C39.815 87.5 38.54 87.4575 34.54 87.275C30.5475 87.0925 27.82 86.4575 25.435 85.5325C22.9338 84.5903 20.6679 83.1144 18.795 81.2075C16.885 79.3325 15.41 77.065 14.47 74.565C13.5425 72.18 12.9075 69.4525 12.725 65.46C12.5425 61.46 12.5 60.1875 12.5 50C12.5 39.8125 12.545 38.54 12.725 34.5425C12.9075 30.55 13.545 27.82 14.4675 25.435C15.4096 22.9337 16.8856 20.6678 18.7925 18.795C20.6675 16.885 22.935 15.41 25.435 14.47C27.82 13.5425 30.5475 12.9075 34.54 12.725ZM65.155 19.475C61.2 19.295 60.0125 19.2575 50 19.2575C39.9875 19.2575 38.8 19.295 34.845 19.475C31.19 19.6425 29.205 20.2525 27.8825 20.7675C26.2535 21.3674 24.7799 22.3251 23.57 23.57C22.26 24.8825 21.445 26.1325 20.7675 27.8825C20.25 29.205 19.6425 31.19 19.475 34.845C19.295 38.8 19.2575 39.9875 19.2575 50C19.2575 60.0125 19.295 61.2 19.475 65.155C19.6425 68.81 20.2525 70.795 20.7675 72.1175C21.3678 73.7463 22.3254 75.2199 23.57 76.43C24.78 77.6747 26.2536 78.6323 27.8825 79.2325C29.205 79.75 31.19 80.3575 34.845 80.525C38.8 80.705 39.985 80.7425 50 80.7425C60.015 80.7425 61.2 80.705 65.155 80.525C68.81 80.3575 70.795 79.7475 72.1175 79.2325C73.7465 78.6326 75.2202 77.675 76.43 76.43C77.6747 75.22 78.6323 73.7464 79.2325 72.1175C79.75 70.795 80.3575 68.81 80.525 65.155C80.705 61.2 80.7425 60.0125 80.7425 50C80.7425 39.9875 80.705 38.8 80.525 34.845C80.3575 31.19 79.7475 29.205 79.2325 27.8825C78.555 26.1325 77.7425 24.8825 76.43 23.57C75.1175 22.26 73.8675 21.445 72.1175 20.7675C70.795 20.25 68.81 19.6425 65.155 19.475Z"
        fill="var(--AccentColor)" />
</svg>