<svg width="37" height="37" viewBox="0 0 37 37" fill="none" xmlns="http://www.w3.org/2000/svg">
<path d="M32.375 6.66544V30.3345C32.375 30.8757 32.1601 31.3948 31.7774 31.7774C31.3948 32.1601 30.8757 32.375 30.3345 32.375H6.66544C6.12428 32.375 5.60529 32.1601 5.22263 31.7774C4.83998 31.3948 4.625 30.8757 4.625 30.3345V6.66544C4.625 6.12428 4.83998 5.60529 5.22263 5.22263C5.60529 4.83998 6.12428 4.625 6.66544 4.625H30.3345C30.8757 4.625 31.3948 4.83998 31.7774 5.22263C32.1601 5.60529 32.375 6.12428 32.375 6.66544ZM12.7868 15.2353H8.70585V28.2942H12.7868V15.2353ZM13.154 10.7463C13.1562 10.4376 13.0975 10.1315 12.9814 9.84553C12.8652 9.55954 12.6939 9.29919 12.4772 9.07938C12.2604 8.85965 12.0025 8.68466 11.7181 8.56458C11.4337 8.44449 11.1285 8.38155 10.8198 8.37942H10.7463C10.1186 8.37942 9.51657 8.62882 9.07265 9.07265C8.62882 9.51657 8.37942 10.1186 8.37942 10.7463C8.37942 11.3741 8.62882 11.9761 9.07265 12.42C9.51657 12.8639 10.1186 13.1132 10.7463 13.1132C11.055 13.1208 11.3622 13.0676 11.6503 12.9564C11.9384 12.8452 12.2018 12.6784 12.4254 12.4654C12.649 12.2524 12.8284 11.9974 12.9534 11.715C13.0785 11.4327 13.1466 11.1285 13.154 10.8198V10.7463ZM28.2942 20.3608C28.2942 16.4351 25.7967 14.9088 23.3155 14.9088C22.5031 14.8681 21.6942 15.0412 20.9696 15.4107C20.2449 15.7802 19.6298 16.3331 19.1856 17.0145H19.0713V15.2353H15.2353V28.2942H19.3162V21.3485C19.2572 20.6371 19.4813 19.9312 19.9397 19.3841C20.3982 18.837 21.054 18.4929 21.7647 18.4265H21.9198C23.2175 18.4265 24.1806 19.2427 24.1806 21.2995V28.2942H28.2614L28.2942 20.3608Z" fill="#011627"/>
<circle cx="10.7854" cy="10.7854" r="2.39676" fill="#FF2323"/>
</svg>
